<?xml version="1.0" encoding="utf-8"?>
<!-- Generator: Adobe Illustrator 23.0.2, SVG Export Plug-In . SVG Version: 6.00 Build 0)  -->
<svg version="1.1" id="Layer_1" xmlns="http://www.w3.org/2000/svg" xmlns:xlink="http://www.w3.org/1999/xlink" x="0px" y="0px"
	 viewBox="0 0 304 84" style="enable-background:new 0 0 304 84;" xml:space="preserve">
<style type="text/css">
	.st0{fill:#FFFFFF;}
	.st1{fill:#5E17EB;}
</style>
<g>
	<g transform="matrix(1,0,0,1,123,168)">
		<g>
			<g>
				<g>
					<g>
						<g>
							<g transform="translate(0.59184, 37.052326)">
								<path class="st0" d="M-49-140.5v-48.2h4.1v48.2H-49z"/>
							</g>
						</g>
					</g>
				</g>
				<g>
					<g transform="translate(10.812751, 37.052326)">
						<path class="st0" d="M-17.5-144h1.6v3.4c-0.6,0.3-1.2,0.5-2,0.5c-1.5,0-2.8-0.4-3.8-1.2c-1-0.8-1.8-1.9-2.2-3.3
							c-1.2,1.4-2.7,2.5-4.4,3.3c-1.7,0.8-3.6,1.2-5.5,1.2c-2.5,0-4.8-0.6-6.9-1.8c-2.1-1.2-3.7-2.9-4.9-4.9
							c-1.2-2.1-1.8-4.4-1.8-6.9c0-2.5,0.6-4.8,1.8-6.9c1.2-2.1,2.9-3.7,4.9-4.9c2.1-1.2,4.4-1.8,6.9-1.8c1.9,0,3.6,0.3,5.3,1
							c1.6,0.7,3.1,1.7,4.3,2.9v-3.4h4.1v19.4c0,1.2,0.3,2.1,0.8,2.6C-18.8-144.2-18.2-144-17.5-144z M-33.8-144.1
							c1.7,0,3.3-0.4,4.8-1.3c1.4-0.8,2.6-2,3.5-3.5c0.9-1.5,1.3-3.1,1.3-4.8c0-1.8-0.4-3.4-1.3-4.9c-0.9-1.4-2-2.6-3.5-3.4
							c-1.4-0.8-3-1.3-4.8-1.3c-1.8,0-3.4,0.4-4.8,1.3c-1.5,0.8-2.6,2-3.5,3.4c-0.8,1.4-1.3,3.1-1.3,4.9c0,1.8,0.4,3.4,1.3,4.8
							c0.8,1.5,2,2.6,3.5,3.5C-37.2-144.5-35.6-144.1-33.8-144.1z"/>
					</g>
				</g>
				<g>
					<g transform="translate(37.298671, 37.052326)">
						<path class="st0" d="M-27.8-140c-2.9,0-5.3-0.9-7.1-2.7c-1.8-1.8-2.7-4.2-2.7-7.3v-16.8h4v16.3c0,2,0.6,3.5,1.7,4.7
							c1.1,1.1,2.5,1.7,4.1,1.7c1.7,0,3.1-0.6,4.2-1.7c1.1-1.1,1.6-2.7,1.6-4.7v-16.3h4v16.8c0,3.1-0.9,5.5-2.7,7.3
							C-22.5-140.9-24.9-140-27.8-140z"/>
					</g>
				</g>
				<g>
					<g transform="translate(57.887914, 37.052326)">
						<path class="st0" d="M-19.5-167.3c1.7,0,3.3,0.5,4.7,1.4c1.5,0.9,2.7,2.1,3.6,3.6c0.9,1.5,1.4,3.2,1.4,5.1v16.7h-4.1v-16.7
							c0-1.7-0.6-3.1-1.8-4.2c-1.2-1.2-2.6-1.8-4.2-1.8c-1.7,0-3.1,0.6-4.3,1.8c-1.2,1.2-1.8,2.6-1.8,4.2v16.7h-4.1v-26.2h4.1v2.1
							c0.9-0.8,1.8-1.5,2.9-1.9C-21.9-167-20.7-167.3-19.5-167.3z"/>
					</g>
				</g>
				<g>
					<g transform="translate(79.902189, 37.052326)">
						<path class="st0" d="M-10.8-140c-2.5,0-4.8-0.6-6.9-1.8c-2.1-1.2-3.7-2.9-4.9-4.9c-1.2-2.1-1.8-4.4-1.8-6.9
							c0-2.5,0.6-4.8,1.8-6.9c1.2-2.1,2.9-3.7,4.9-4.9c2.1-1.2,4.4-1.8,6.9-1.8c3.1,0,5.8,0.9,8.1,2.7c2.4,1.8,4,4,4.9,6.8h-4.3
							c-0.8-1.6-2-2.9-3.5-3.9c-1.5-1-3.3-1.5-5.2-1.5c-1.8,0-3.4,0.4-4.8,1.3c-1.5,0.8-2.6,2-3.5,3.4c-0.8,1.4-1.3,3.1-1.3,4.9
							c0,1.8,0.4,3.4,1.3,4.9c0.8,1.4,2,2.6,3.5,3.4c1.5,0.8,3.1,1.3,4.8,1.3c1.9,0,3.6-0.5,5.2-1.5c1.5-1,2.7-2.3,3.5-3.9h4.3
							c-0.9,2.8-2.5,5-4.9,6.8C-5-140.9-7.7-140-10.8-140z"/>
					</g>
				</g>
				<g>
					<g>
						<g>
							<g transform="translate(103.341496, 37.052326)">
								<path class="st0" d="M-4.9-167.3c1.8,0,3.5,0.5,5,1.4c1.5,0.9,2.7,2.1,3.6,3.6c0.9,1.5,1.3,3.2,1.3,5v16.8H1v-16.8
									c0-1.7-0.6-3.1-1.8-4.2c-1.2-1.1-2.5-1.7-4.2-1.7c-1.6,0-3,0.6-4.1,1.7c-1.1,1.1-1.7,2.5-1.7,4.2v16.8h-4.1v-48.2h4.1v23.4
									c0.8-0.6,1.7-1.1,2.7-1.4C-7-167.1-6-167.3-4.9-167.3z"/>
							</g>
						</g>
					</g>
				</g>
				<g>
					<g transform="translate(125.110075, 37.052326)">
						<path class="st0" d="M13.8-166.7h4.1v28.5c0,2.5-0.6,4.8-1.8,6.8c-1.2,2.1-2.9,3.7-4.9,5c-2.1,1.2-4.3,1.8-6.9,1.8
							c-2.9,0-5.6-0.8-7.9-2.5c-2.3-1.7-4-3.9-4.9-6.5l3.8-1.6c0.6,1.9,1.7,3.4,3.4,4.7c1.7,1.3,3.6,1.9,5.7,1.9
							c1.7,0,3.3-0.4,4.8-1.3c1.4-0.9,2.6-2,3.5-3.5c0.9-1.4,1.3-3,1.3-4.8v-5.7c-1.2,1.2-2.7,2.2-4.3,2.9c-1.6,0.7-3.4,1-5.3,1
							c-2.5,0-4.8-0.6-6.9-1.8c-2.1-1.2-3.7-2.9-4.9-4.9c-1.2-2.1-1.8-4.4-1.8-6.9c0-2.5,0.6-4.8,1.8-6.9c1.2-2.1,2.9-3.7,4.9-4.9
							c2.1-1.2,4.4-1.8,6.9-1.8c1.8,0,3.6,0.3,5.2,1c1.6,0.7,3.1,1.6,4.3,2.8V-166.7z M4.3-144.1c1.7,0,3.3-0.4,4.8-1.3
							c1.4-0.9,2.6-2,3.5-3.5c0.9-1.4,1.3-3,1.3-4.8c0-1.8-0.4-3.4-1.3-4.9c-0.9-1.4-2-2.6-3.5-3.4c-1.4-0.8-3-1.3-4.8-1.3
							c-1.8,0-3.4,0.4-4.8,1.3c-1.5,0.8-2.6,2-3.5,3.4c-0.8,1.4-1.3,3.1-1.3,4.9c0,1.8,0.4,3.3,1.3,4.8c0.8,1.4,2,2.6,3.5,3.5
							C0.9-144.5,2.5-144.1,4.3-144.1z"/>
					</g>
				</g>
				<g>
					<g transform="translate(151.350301, 37.052326)">
						<path class="st0" d="M13-140c-2.5,0-4.8-0.6-6.9-1.8c-2.1-1.2-3.7-2.9-4.9-4.9c-1.2-2.1-1.8-4.4-1.8-6.9
							c0-2.5,0.6-4.8,1.8-6.9c1.2-2.1,2.9-3.7,4.9-4.9c2.1-1.2,4.4-1.8,6.9-1.8c2.5,0,4.8,0.6,6.9,1.8c2.1,1.2,3.7,2.9,4.9,4.9
							c1.2,2.1,1.8,4.3,1.8,6.9c0,2.5-0.6,4.8-1.8,6.9c-1.2,2.1-2.9,3.7-4.9,4.9C17.9-140.6,15.6-140,13-140z M13-144.1
							c1.7,0,3.3-0.4,4.8-1.3c1.4-0.8,2.6-2,3.5-3.5c0.9-1.5,1.3-3.1,1.3-4.8c0-1.8-0.4-3.4-1.3-4.9c-0.9-1.4-2-2.6-3.5-3.4
							c-1.4-0.8-3-1.3-4.8-1.3c-1.8,0-3.4,0.4-4.8,1.3c-1.5,0.8-2.6,2-3.5,3.4c-0.8,1.4-1.3,3.1-1.3,4.9c0,1.8,0.4,3.4,1.3,4.8
							c0.8,1.5,2,2.6,3.5,3.5C9.7-144.5,11.3-144.1,13-144.1z"/>
					</g>
				</g>
			</g>
		</g>
	</g>
	<g>
		<g>
			<path class="st1" d="M44.5,38.9v-8.6c0-5.7-1.4-11.3-4.2-16.3l-5.4-9.8c-0.8-1.4-2.3-2.3-4-2.3c0,0,0,0,0,0c-1.7,0-3.2,0.9-4,2.4
				l-5.3,9.8c-2.7,5-4.1,10.6-4.1,16.2v8.6C11,39.9,6,45.5,6,52.3v8c0,4.3,3.5,7.7,7.7,7.7c4.2,0,7.7-3.4,7.7-7.7c0,0,0,0,0,0V48.2
				l7.9,13.9c0,0.1,0.1,0.2,0.2,0.2c0,0,0,0,0,0c0.1,0.1,0.1,0.2,0.2,0.2c0,0,0,0,0.1,0.1c0.1,0.1,0.2,0.1,0.3,0.2c0,0,0,0,0,0
				c0,0,0,0,0.1,0c0,0,0.1,0.1,0.2,0.1c0.1,0,0.1,0,0.2,0.1c0,0,0,0,0.1,0c0.1,0,0.2,0,0.2,0h0c0.1,0,0.2,0,0.2,0
				c0.2,0,0.3,0,0.5-0.1c0,0,0,0,0,0c0.1,0,0.1,0,0.2-0.1c0.1,0,0.1-0.1,0.2-0.1c0,0,0,0,0,0c0.1-0.1,0.2-0.1,0.3-0.2
				c0,0,0,0,0.1-0.1c0.1-0.1,0.2-0.2,0.2-0.2c0,0,0,0,0,0c0.1-0.1,0.1-0.1,0.2-0.2l7.9-14v12.2c0,4.3,3.5,7.7,7.7,7.7
				s7.7-3.5,7.7-7.7v-8C56,45.5,51,39.9,44.5,38.9z M17.5,58.3L17.5,58.3l0,1.9c0,2.1-1.7,3.8-3.8,3.8s-3.8-1.7-3.8-3.8v-8
				c0-4.6,3.3-8.5,7.6-9.4L17.5,58.3L17.5,58.3z M31,57.2l-8.4-14.8c3.5-0.8,6.5-3.1,8.4-6.1c1.8,3,4.8,5.3,8.4,6.1L31,57.2z
				 M40.6,38.6c-4.4-0.9-7.7-4.7-7.7-9.3v-5c0-1.1-0.9-2-2-2s-1.9,0.9-1.9,2v5c0,4.6-3.3,8.4-7.6,9.3v-8.3c0-5,1.3-10,3.7-14.4
				l5.3-9.8c0.2-0.3,0.4-0.3,0.5-0.3c0.1,0,0.4,0,0.5,0.3l5.4,9.8c2.4,4.4,3.7,9.4,3.7,14.5L40.6,38.6L40.6,38.6z M52.1,58.3v1.9
				c0,2.1-1.7,3.8-3.8,3.8c-2.1,0-3.8-1.7-3.8-3.8V42.9c4.3,0.9,7.6,4.8,7.6,9.4V58.3z"/>
		</g>
	</g>
</g>
</svg>
