<svg xmlns="http://www.w3.org/2000/svg" viewBox="0 0 304 84" xml:space="preserve"><path d="M74.592 64.552v-48.2h4.1v48.2zm41.721-3.5h1.6v3.4c-.6.3-1.2.5-2 .5-1.5 0-2.8-.4-3.8-1.2s-1.8-1.9-2.2-3.3c-1.2 1.4-2.7 2.5-4.4 3.3s-3.6 1.2-5.5 1.2q-3.75 0-6.9-1.8c-2.1-1.2-3.7-2.9-4.9-4.9q-1.8-3.15-1.8-6.9t1.8-6.9c1.2-2.1 2.9-3.7 4.9-4.9q3.15-1.8 6.9-1.8c1.9 0 3.6.3 5.3 1 1.6.7 3.1 1.7 4.3 2.9v-3.4h4.1v19.4c0 1.2.3 2.1.8 2.6.5.6 1.1.8 1.8.8m-16.3-.1c1.7 0 3.3-.4 4.8-1.3 1.4-.8 2.6-2 3.5-3.5s1.3-3.1 1.3-4.8c0-1.8-.4-3.4-1.3-4.9-.9-1.4-2-2.6-3.5-3.4-1.4-.8-3-1.3-4.8-1.3s-3.4.4-4.8 1.3c-1.5.8-2.6 2-3.5 3.4-.8 1.4-1.3 3.1-1.3 4.9s.4 3.4 1.3 4.8c.8 1.5 2 2.6 3.5 3.5 1.4.9 3 1.3 4.8 1.3m32.486 4.1c-2.9 0-5.3-.9-7.1-2.7s-2.7-4.2-2.7-7.3v-16.8h4v16.3c0 2 .6 3.5 1.7 4.7 1.1 1.1 2.5 1.7 4.1 1.7 1.7 0 3.1-.6 4.2-1.7s1.6-2.7 1.6-4.7v-16.3h4v16.8c0 3.1-.9 5.5-2.7 7.3s-4.2 2.7-7.1 2.7m28.889-27.3c1.7 0 3.3.5 4.7 1.4q2.25 1.35 3.6 3.6c.9 1.5 1.4 3.2 1.4 5.1v16.7h-4.1v-16.7q0-2.55-1.8-4.2-1.8-1.8-4.2-1.8c-1.7 0-3.1.6-4.3 1.8q-1.8 1.8-1.8 4.2v16.7h-4.1v-26.2h4.1v2.1c.9-.8 1.8-1.5 2.9-1.9 1.2-.5 2.4-.8 3.6-.8m30.714 27.3q-3.75 0-6.9-1.8c-2.1-1.2-3.7-2.9-4.9-4.9q-1.8-3.15-1.8-6.9t1.8-6.9c1.2-2.1 2.9-3.7 4.9-4.9q3.15-1.8 6.9-1.8 4.65 0 8.1 2.7c2.4 1.8 4 4 4.9 6.8h-4.3c-.8-1.6-2-2.9-3.5-3.9s-3.3-1.5-5.2-1.5c-1.8 0-3.4.4-4.8 1.3-1.5.8-2.6 2-3.5 3.4-.8 1.4-1.3 3.1-1.3 4.9s.4 3.4 1.3 4.9c.8 1.4 2 2.6 3.5 3.4s3.1 1.3 4.8 1.3c1.9 0 3.6-.5 5.2-1.5 1.5-1 2.7-2.3 3.5-3.9h4.3c-.9 2.8-2.5 5-4.9 6.8-2.3 1.6-5 2.5-8.1 2.5m29.339-27.3c1.8 0 3.5.5 5 1.4q2.25 1.35 3.6 3.6c.9 1.5 1.3 3.2 1.3 5v16.8h-4v-16.8q0-2.55-1.8-4.2c-1.2-1.1-2.5-1.7-4.2-1.7-1.6 0-3 .6-4.1 1.7s-1.7 2.5-1.7 4.2v16.8h-4.1v-48.2h4.1v23.4c.8-.6 1.7-1.1 2.7-1.4 1.1-.4 2.1-.6 3.2-.6m40.469.6h4.1v28.5c0 2.5-.6 4.8-1.8 6.8-1.2 2.1-2.9 3.7-4.9 5-2.1 1.2-4.3 1.8-6.9 1.8-2.9 0-5.6-.8-7.9-2.5s-4-3.9-4.9-6.5l3.8-1.6c.6 1.9 1.7 3.4 3.4 4.7s3.6 1.9 5.7 1.9c1.7 0 3.3-.4 4.8-1.3 1.4-.9 2.6-2 3.5-3.5.9-1.4 1.3-3 1.3-4.8v-5.7c-1.2 1.2-2.7 2.2-4.3 2.9s-3.4 1-5.3 1q-3.75 0-6.9-1.8c-2.1-1.2-3.7-2.9-4.9-4.9q-1.8-3.15-1.8-6.9t1.8-6.9c1.2-2.1 2.9-3.7 4.9-4.9q3.15-1.8 6.9-1.8c1.8 0 3.6.3 5.2 1s3.1 1.6 4.3 2.8v-3.3zm-9.5 22.6c1.7 0 3.3-.4 4.8-1.3 1.4-.9 2.6-2 3.5-3.5.9-1.4 1.3-3 1.3-4.8s-.4-3.4-1.3-4.9c-.9-1.4-2-2.6-3.5-3.4-1.4-.8-3-1.3-4.8-1.3s-3.4.4-4.8 1.3c-1.5.8-2.6 2-3.5 3.4-.8 1.4-1.3 3.1-1.3 4.9s.4 3.3 1.3 4.8c.8 1.4 2 2.6 3.5 3.5 1.4.9 3 1.3 4.8 1.3m34.94 4.1q-3.75 0-6.9-1.8c-2.1-1.2-3.7-2.9-4.9-4.9q-1.8-3.15-1.8-6.9t1.8-6.9c1.2-2.1 2.9-3.7 4.9-4.9q3.15-1.8 6.9-1.8t6.9 1.8c2.1 1.2 3.7 2.9 4.9 4.9 1.2 2.1 1.8 4.3 1.8 6.9q0 3.75-1.8 6.9c-1.2 2.1-2.9 3.7-4.9 4.9q-3 1.8-6.9 1.8m0-4.1c1.7 0 3.3-.4 4.8-1.3 1.4-.8 2.6-2 3.5-3.5s1.3-3.1 1.3-4.8c0-1.8-.4-3.4-1.3-4.9-.9-1.4-2-2.6-3.5-3.4-1.4-.8-3-1.3-4.8-1.3s-3.4.4-4.8 1.3c-1.5.8-2.6 2-3.5 3.4-.8 1.4-1.3 3.1-1.3 4.9s.4 3.4 1.3 4.8c.8 1.5 2 2.6 3.5 3.5s3.1 1.3 4.8 1.3" style="fill:#fff"/><path d="M44.5 38.9v-8.6c0-5.7-1.4-11.3-4.2-16.3l-5.4-9.8c-.8-1.4-2.3-2.3-4-2.3s-3.2.9-4 2.4l-5.3 9.8c-2.7 5-4.1 10.6-4.1 16.2v8.6C11 39.9 6 45.5 6 52.3v8c0 4.3 3.5 7.7 7.7 7.7s7.7-3.4 7.7-7.7V48.2l7.9 13.9c0 .1.1.2.2.2.1.1.1.2.2.2l.1.1c.1.1.2.1.3.2h.1s.1.1.2.1.1 0 .2.1h.5c.2 0 .3 0 .5-.1.1 0 .1 0 .2-.1.1 0 .1-.1.2-.1.1-.1.2-.1.3-.2l.1-.1.2-.2.2-.2 7.9-14v12.2c0 4.3 3.5 7.7 7.7 7.7s7.7-3.5 7.7-7.7v-8C56 45.5 51 39.9 44.5 38.9m-27 19.4v1.9c0 2.1-1.7 3.8-3.8 3.8s-3.8-1.7-3.8-3.8v-8c0-4.6 3.3-8.5 7.6-9.4zM31 57.2l-8.4-14.8c3.5-.8 6.5-3.1 8.4-6.1 1.8 3 4.8 5.3 8.4 6.1zm9.6-18.6c-4.4-.9-7.7-4.7-7.7-9.3v-5c0-1.1-.9-2-2-2s-1.9.9-1.9 2v5c0 4.6-3.3 8.4-7.6 9.3v-8.3c0-5 1.3-10 3.7-14.4l5.3-9.8c.2-.3.4-.3.5-.3s.4 0 .5.3l5.4 9.8c2.4 4.4 3.7 9.4 3.7 14.5zm11.5 19.7v1.9c0 2.1-1.7 3.8-3.8 3.8s-3.8-1.7-3.8-3.8V42.9c4.3.9 7.6 4.8 7.6 9.4z" style="fill:#5e17eb"/></svg>