<svg enable-background="new 0 0 304 84" viewBox="0 0 304 84" xmlns="http://www.w3.org/2000/svg" xmlns:xlink="http://www.w3.org/1999/xlink"><clipPath id="a"><path d="m37.4 30.9h12.9v7.2h-12.9z"/></clipPath><clipPath id="b"><ellipse cx="44" cy="34.6" rx="6.4" ry="3.7"/></clipPath><clipPath id="c"><path d="m8.7 4.1h14.2v9.5h-14.2z"/></clipPath><clipPath id="d"><path d="m9.4 4.9h12.9v7.2h-12.9z"/></clipPath><clipPath id="e"><ellipse cx="16" cy="8.6" rx="6.4" ry="3.7"/></clipPath><clipPath id="f"><path d="m40.3 30.9h7.2v7.2h-7.2z"/></clipPath><clipPath id="g"><circle cx="44" cy="34.6" r="3.7"/></clipPath><clipPath id="h"><path d="m9.9 4.1h7.9v9.5h-7.9z"/></clipPath><clipPath id="i"><path d="m10.3 4.9h7.2v7.2h-7.2z"/></clipPath><clipPath id="j"><circle cx="14" cy="8.6" r="3.7"/></clipPath><clipPath id="k"><path d="m40.8 31.8h7.2v7.2h-7.2z"/></clipPath><clipPath id="l"><circle cx="44.3" cy="35.4" r="3.7"/></clipPath><clipPath id="m"><path d="m9.9 4.6h9.5v7.9h-9.5z"/></clipPath><clipPath id="n"><path d="m10.8 4.8h7.2v7.2h-7.2z"/></clipPath><clipPath id="o"><circle cx="14.3" cy="8.4" r="3.7"/></clipPath><clipPath id="p"><path d="m37.4 30.9h12.9v7.2h-12.9z"/></clipPath><clipPath id="q"><ellipse cx="44" cy="34.6" rx="6.4" ry="3.7"/></clipPath><clipPath id="r"><path d="m8.7 4.1h14.2v9.5h-14.2z"/></clipPath><clipPath id="s"><path d="m9.4 4.9h12.9v7.2h-12.9z"/></clipPath><clipPath id="t"><ellipse cx="16" cy="8.6" rx="6.4" ry="3.7"/></clipPath><clipPath id="u"><path d="m40.3 30.9h7.2v7.2h-7.2z"/></clipPath><clipPath id="v"><circle cx="44" cy="34.6" r="3.7"/></clipPath><clipPath id="w"><path d="m9.9 4.1h7.9v9.5h-7.9z"/></clipPath><clipPath id="x"><path d="m10.3 4.9h7.2v7.2h-7.2z"/></clipPath><clipPath id="y"><circle cx="14" cy="8.6" r="3.7"/></clipPath><clipPath id="z"><circle cx="30.2" cy="38.3" r="24.2"/></clipPath><clipPath id="A"><path d="m-2.8-2.3h50.7v50.7h-50.7z"/></clipPath><clipPath id="B"><path d="m-2-.9h48.4v48.4h-48.4z"/></clipPath><clipPath id="C"><circle cx="22.2" cy="23.3" r="24.2"/></clipPath><clipPath id="D"><path d="m22.8 15.3h14.6v46.2h-14.6z"/></clipPath><clipPath id="E"><path d="m27.9 59.6-3.8-13.4c-1.5-5.2-1.5-10.7 0-15.9l3.8-13.4c.2-1.1 1.2-1.7 2.3-1.7s2 .7 2.3 1.7l3.9 13.5c1.5 5.2 1.5 10.7 0 15.9l-3.9 13.4c-.2 1.1-1.2 1.7-2.3 1.7s-2-.7-2.3-1.8z"/></clipPath><clipPath id="F"><path d="m3.5-1.8h15.8v47.5h-15.8z"/></clipPath><clipPath id="G"><path d="m3.8-.7h14.6v46.2h-14.6z"/></clipPath><clipPath id="H"><path d="m8.9 43.6-3.9-13.4c-1.5-5.2-1.5-10.6 0-15.9l3.9-13.4c.2-1.1 1.2-1.7 2.3-1.7s2 .7 2.3 1.7l3.9 13.5c1.5 5.2 1.5 10.7 0 15.9l-3.9 13.4c-.2 1.1-1.2 1.7-2.3 1.7s-2-.7-2.3-1.8z"/></clipPath><clipPath id="I"><path d="m30 54.1h5v6.4h-5z"/></clipPath><clipPath id="J"><path d="m5.9 12.8h6.3v7.9h-6.3z"/></clipPath><clipPath id="K"><path d="m7 13.1h5v6.4h-5z"/></clipPath><clipPath id="L"><path d="m17.7 42.7h11v14.2h-11z"/></clipPath><clipPath id="M"><path d="m15.8 45.2h13.8v10h-13.8z" transform="matrix(.426 -.9047 .9047 .426 -32.4015 49.3576)"/></clipPath><clipPath id="N"><path d="m19.2 46.1c.9-2 4-3.2 6.5-2s3.4 4.4 2.5 6.3c-2.5 5.3-8.3 6.1-8.3 6.1s-3.3-4.9-.7-10.4z"/></clipPath><clipPath id="O"><path d="m1.7 8.7h11v14.2h-11z"/></clipPath><clipPath id="P"><path d="m1.7 8.8h11v13.5h-11z"/></clipPath><clipPath id="Q"><path d="m-.2 11.2h13.8v10h-13.8z" transform="matrix(.426 -.9047 .9047 .426 -10.8244 15.3671)"/></clipPath><clipPath id="R"><path d="m3.2 12.1c.9-2 4-3.2 6.5-2s3.4 4.4 2.5 6.3c-2.5 5.3-8.3 6.1-8.3 6.1s-3.3-4.9-.7-10.4z"/></clipPath><clipPath id="S"><path d="m22.4 47.5h15.2v7.6h-15.2z"/></clipPath><clipPath id="T"><path d="m33.8 47.5h-7.6l-3.8 3.8 3.8 3.8h7.6l3.8-3.8z"/></clipPath><clipPath id="U"><path d="m2.9 10.4h17.4v7.9h-17.4z"/></clipPath><clipPath id="V"><path d="m4.4 10.5h15.2v7.6h-15.2z"/></clipPath><clipPath id="W"><path d="m15.8 10.5h-7.6l-3.8 3.8 3.8 3.8h7.6l3.8-3.8z"/></clipPath><clipPath id="X"><path d="m30.4 42.7h11v14.2h-11z"/></clipPath><clipPath id="Y"><path d="m32 43.4h10v13.8h-10z" transform="matrix(.9039 -.4278 .4278 .9039 -17.9404 20.6533)"/></clipPath><clipPath id="Z"><path d="m31.5 50.4c-.9-2 0-5.1 2.5-6.3s5.6.1 6.5 2c2.5 5.3-.6 10.3-.6 10.3s-5.8-.6-8.4-6z"/></clipPath><clipPath id="aa"><path d="m6.4 8.7h11v14.2h-11z"/></clipPath><clipPath id="ab"><path d="m6.4 8.8h11v14h-11z"/></clipPath><clipPath id="ac"><path d="m8 9.4h10v13.8h-10z" transform="matrix(.9039 -.4278 .4278 .9039 -5.7028 7.1176)"/></clipPath><clipPath id="ad"><path d="m7.5 16.4c-.9-2 0-5.1 2.5-6.3s5.6.1 6.5 2c2.5 5.3-.6 10.3-.6 10.3s-5.8-.6-8.4-6z"/></clipPath><clipPath id="ae"><path d="m26.8 35.1h6.8v6.8h-6.8z"/></clipPath><clipPath id="af"><circle cx="30.2" cy="38.5" r="3.4"/></clipPath><clipPath id="ag"><path d="m4.7 5.8h7.9v7.9h-7.9z"/></clipPath><clipPath id="ah"><path d="m5.8 6.1h6.8v6.8h-6.8z"/></clipPath><clipPath id="ai"><circle cx="9.2" cy="9.5" r="3.4"/></clipPath><clipPath id="aj"><path d="m27 56.7h6.4v18.2h-6.4z"/></clipPath><clipPath id="ak"><path d="m30.2 74.7-3.2-18h6.4z"/></clipPath><clipPath id="al"><path d="m4.7 13.4h7.9v20.5h-7.9z"/></clipPath><clipPath id="am"><path d="m6 14.7h6.4v18.2h-6.4z"/></clipPath><clipPath id="an"><path d="m9.2 32.7-3.2-18h6.4z"/></clipPath><clipPath id="ao"><path d="m22.7-4h4.7v51.5h-4.7z"/></clipPath><g clip-path="url(#a)"><g clip-path="url(#b)"><g clip-path="url(#c)" transform="translate(28 26)"><g clip-path="url(#d)"><g clip-path="url(#e)"><path d="m9.4 4.9h12.9v7.2h-12.9z" fill="#0a131e"/></g></g></g></g></g><g clip-path="url(#f)"><g clip-path="url(#g)"><g clip-path="url(#h)" transform="translate(30 26)"><g clip-path="url(#i)"><g clip-path="url(#j)"><path d="m10.3 4.9h7.2v7.2h-7.2z" fill="#0a131e"/></g></g></g></g></g><g clip-path="url(#k)"><g clip-path="url(#l)"><g clip-path="url(#m)" transform="translate(30 27)"><g clip-path="url(#n)"><g clip-path="url(#o)"><path d="m10.8 4.8h7.2v7.2h-7.2z" fill="#0a131e"/></g></g></g></g></g><g clip-path="url(#p)"><g clip-path="url(#q)"><g clip-path="url(#r)" transform="translate(28 26)"><g clip-path="url(#s)"><g clip-path="url(#t)"><path d="m9.4 4.9h12.9v7.2h-12.9z" fill="#0a131e"/></g></g></g></g></g><g clip-path="url(#u)"><g clip-path="url(#v)"><g clip-path="url(#w)" transform="translate(30 26)"><g clip-path="url(#x)"><g clip-path="url(#y)"><path d="m10.3 4.9h7.2v7.2h-7.2z" fill="#0a131e"/></g></g></g></g></g><g clip-path="url(#z)"><g clip-path="url(#A)" transform="translate(8 15)"><g clip-path="url(#B)"><g clip-path="url(#C)"><path d="m-2-.9h48.4v48.4h-48.4z" fill="#ff7121"/></g></g></g></g><g clip-path="url(#D)"><g clip-path="url(#E)"><g clip-path="url(#F)" transform="translate(19 16)"><g clip-path="url(#G)"><g clip-path="url(#H)"><path d="m-98.3-50.6h469.8v153.8h-469.8z" fill="#0a131e"/></g></g></g></g></g><path d="m27.1 51.3.2 7.6" fill="none" stroke="#ff7121" stroke-width="5"/><g clip-path="url(#I)"><g clip-path="url(#J)" transform="translate(23 41)"><g clip-path="url(#K)"><path d="m7 19.5v-6.4h5v6.4z" fill="#ff7121"/></g></g></g><g clip-path="url(#L)"><g clip-path="url(#M)"><g clip-path="url(#N)"><g clip-path="url(#O)" transform="translate(16 34)"><g clip-path="url(#P)"><g clip-path="url(#Q)"><g clip-path="url(#R)"><path d="m8.4 24.5-9-4.3 5.8-12.4 9 4.3z" fill="#0a131e"/></g></g></g></g></g></g></g><g clip-path="url(#S)"><g clip-path="url(#T)"><g clip-path="url(#U)" transform="translate(18 37)"><g clip-path="url(#V)"><g clip-path="url(#W)"><path d="m4.4 10.5h15.2v7.6h-15.2z" fill="#0a131e"/></g></g></g></g></g><g clip-path="url(#X)"><g clip-path="url(#Y)"><g clip-path="url(#Z)"><g clip-path="url(#aa)" transform="translate(24 34)"><g clip-path="url(#ab)"><g clip-path="url(#ac)"><g clip-path="url(#ad)"><path d="m20.3 20.3-9 4.3-5.8-12.5 9-4.3z" fill="#0a131e"/></g></g></g></g></g></g></g><g clip-path="url(#ae)"><g clip-path="url(#af)"><g clip-path="url(#ag)" transform="translate(21 29)"><g clip-path="url(#ah)"><g clip-path="url(#ai)"><path d="m5.8 6.1h6.8v6.8h-6.8z" fill="#fff"/></g></g></g></g></g><g clip-path="url(#aj)"><g clip-path="url(#ak)"><g clip-path="url(#al)" transform="translate(21 42)"><g clip-path="url(#am)"><g clip-path="url(#an)"><path d="m12.4 32.7h-6.4v-18h6.4z" fill="#fff"/></g></g></g></g></g><g clip-path="url(#ao)" transform="translate(41 11)"><path d="m21.9 14.4v-50.5h4.3v50.5z" fill="#fff" transform="translate(.919551 32.786858)"/></g><g fill="#fff"><path d="m56.5 10.9h1.7v3.6c-.6.4-1.3.6-2 .6-1.5 0-3-.5-4-1.3-1.1-.8-1.9-2-2.3-3.4-1.3 1.4-2.8 2.6-4.6 3.4s-3.8 1.2-5.8 1.2c-2.6 0-5-.6-7.1-1.9s-3.9-3-5.2-5.2c-1.3-2.1-1.9-4.5-1.9-7.1s.6-5.1 1.9-7.2 3-3.9 5.2-5.2c2.1-1.3 4.5-1.9 7.1-1.9 2 0 3.8.4 5.6 1.1 1.7.7 3.2 1.8 4.5 3v-3.6h4.3v20.3c0 1.3.2 2.3.8 2.7.4.6 1.1.9 1.8.9zm-17-.2c1.8 0 3.4-.5 5-1.3 1.5-.9 2.7-2.1 3.7-3.7.9-1.5 1.4-3.2 1.4-5.1s-.5-3.6-1.4-5.1-2.2-2.7-3.8-3.5c-1.5-.9-3.2-1.3-5-1.3s-3.6.5-5 1.3c-1.5.9-2.7 2.1-3.7 3.6-.9 1.5-1.3 3.2-1.3 5.1 0 1.8.5 3.6 1.3 5s2.1 2.7 3.7 3.7c1.5.9 3.3 1.3 5.1 1.3z" transform="translate(50.941901 43.786858)"/><path d="m50.1 15c-3.1 0-5.6-.9-7.5-2.8s-2.8-4.4-2.8-7.6v-17.6h4.2v17.1c0 2 .6 3.7 1.8 4.9s2.6 1.8 4.4 1.8 3.2-.6 4.4-1.8 1.8-2.8 1.8-4.9v-17.1h4.2v17.6c0 3.2-.9 5.8-2.8 7.6-2.1 1.9-4.6 2.8-7.7 2.8z" transform="translate(74.321933 43.786858)"/><path d="m62.2-13.6c1.8 0 3.4.5 5 1.4s2.8 2.2 3.7 3.8c1 1.6 1.5 3.4 1.5 5.4v17.6h-4.3v-17.7c0-1.8-.6-3.2-1.8-4.4s-2.7-1.8-4.4-1.8c-1.8 0-3.2.6-4.5 1.8-1.2 1.2-1.9 2.7-1.9 4.4v17.6h-4.3v-27.5h4.3v2.1c.9-.8 1.9-1.5 3.1-2 1.1-.5 2.4-.7 3.6-.7z" transform="translate(92.496765 43.786858)"/><path d="m74.9 15c-2.6 0-5-.6-7.1-1.9s-3.9-3-5.2-5.2c-1.3-2.1-1.9-4.5-1.9-7.1s.6-5.1 1.9-7.2 3-3.9 5.2-5.2 4.5-1.9 7.1-1.9c3.2 0 6.1.9 8.5 2.8s4.2 4.3 5.1 7.1h-4.5c-.8-1.7-2-3.1-3.7-4-1.5-1.1-3.4-1.5-5.5-1.5-1.8 0-3.6.5-5 1.3-1.5.9-2.7 2.1-3.7 3.6-.8 1.4-1.3 3.1-1.3 5s.5 3.6 1.3 5.1c.9 1.5 2.1 2.7 3.7 3.6 1.5.9 3.2 1.3 5 1.3 2 0 3.8-.5 5.5-1.5 1.5-1.1 2.8-2.4 3.7-4.2h4.5c-.9 2.8-2.6 5.2-5.1 7.1-2.4 1.9-5.3 2.8-8.5 2.8z" transform="translate(111.929522 43.786858)"/><path d="m85.1-13.6c1.9 0 3.7.5 5.2 1.4s2.8 2.1 3.7 3.7c.9 1.5 1.4 3.3 1.4 5.2v17.6h-4.2v-17.4c0-1.8-.6-3.2-1.8-4.4s-2.6-1.8-4.4-1.8c-1.7 0-3.1.6-4.3 1.8s-1.7 2.6-1.7 4.4v17.6h-4.3v-50.5h4.2v24.4c.8-.6 1.8-1.2 2.8-1.4 1.1-.5 2.2-.6 3.4-.6z" transform="translate(132.620204 43.786858)"/><path d="m108.1-13h4.3v29.8c0 2.6-.6 5-1.9 7.1s-3 3.9-5.2 5.2c-2.1 1.3-4.5 1.9-7.2 1.9-3.1 0-5.8-.8-8.3-2.6s-4.2-4-5.2-6.9l3.9-1.8c.6 2 1.8 3.6 3.6 5 1.8 1.3 3.8 2 5.9 2 1.8 0 3.4-.5 5-1.4 1.5-.9 2.7-2.1 3.7-3.7.9-1.5 1.4-3.2 1.4-5v-5.9c-1.3 1.3-2.7 2.3-4.5 3-1.7.7-3.6 1.1-5.6 1.1-2.6 0-5-.6-7.1-1.9s-3.9-3-5.2-5.2c-1.3-2.1-1.9-4.5-1.9-7.1s.6-5.1 1.9-7.2 3-3.9 5.2-5.2c2.4-1.1 4.7-1.7 7.4-1.7 1.9 0 3.8.4 5.5 1.1s3.2 1.7 4.5 3v-3.6zm-10 23.7c1.8 0 3.4-.5 5-1.3 1.5-.9 2.7-2.1 3.7-3.7.9-1.5 1.4-3.2 1.4-5.1s-.5-3.6-1.4-5.1-2.1-2.7-3.7-3.6c-1.5-.9-3.2-1.3-5-1.3s-3.4.5-5 1.3c-1.5.9-2.7 2.1-3.7 3.6-.8 1.5-1.3 3.2-1.3 5.1 0 1.8.5 3.6 1.3 5 .9 1.5 2.1 2.7 3.7 3.7s3.3 1.4 5 1.4z" transform="translate(151.836078 43.786858)"/><path d="m111.7 15c-2.6 0-5-.6-7.1-1.9s-3.9-3-5.2-5.2c-1.3-2.1-1.9-4.5-1.9-7.1s.6-5.1 1.9-7.2 3-3.9 5.2-5.2c2-1.3 4.5-1.9 7.1-1.9s5.1.6 7.2 1.9 3.9 3 5.2 5.2c1.2 2.1 1.8 4.5 1.8 7.1s-.6 5-1.9 7.1-3 3.9-5.2 5.2c-2.1 1.3-4.5 2-7.1 2zm0-4.3c1.8 0 3.4-.5 5-1.3 1.5-.9 2.7-2.1 3.7-3.7.8-1.5 1.3-3.2 1.3-5.1s-.5-3.6-1.4-5.1-2.1-2.7-3.7-3.6c-1.4-.8-3.1-1.3-4.9-1.3s-3.6.5-5 1.3c-1.5.9-2.7 2.1-3.7 3.6-.9 1.5-1.4 3.2-1.4 5.1 0 1.8.5 3.6 1.3 5s2.1 2.7 3.7 3.7 3.2 1.4 5.1 1.4z" transform="translate(174.999227 43.786858)"/></g></svg>